<svg width="130" height="93" viewBox="0 0 130 93" fill="none" xmlns="http://www.w3.org/2000/svg">
<path d="M54.4635 50.432C55.5728 49.7067 56.7888 49.728 58.1115 50.496C61.0555 52.2027 63.0395 54.4213 64.0635 57.152C65.0875 59.8827 65.2582 62.6987 64.5755 65.6C63.2102 71.4453 60.1808 74.4107 55.4875 74.496C52.1595 74.496 50.0688 73.3013 49.2155 70.912C48.3622 68.48 48.4475 65.4293 49.4715 61.76C50.5382 57.9627 51.9675 54.848 53.7595 52.416C53.8448 51.3067 54.0795 50.6453 54.4635 50.432ZM61.4395 64.192C59.8608 61.7173 57.7702 60.4373 55.1675 60.352C54.0155 60.2667 53.1835 60.7147 52.6715 61.696C51.2635 64.256 52.3728 65.536 55.9995 65.536C58.3462 65.536 60.1595 65.088 61.4395 64.192ZM58.1755 32.512C58.4315 32.1707 58.7942 32.064 59.2635 32.192C60.1168 32.4907 60.9488 32.8747 61.7595 33.344C62.5702 33.8133 63.3168 34.3467 63.9995 34.944C64.3408 35.2853 64.4048 35.6693 64.1915 36.096L61.1195 40.96C60.7782 41.4293 60.3942 41.472 59.9675 41.088C59.7968 40.9173 59.4128 40.6613 58.8155 40.32C58.2608 39.936 57.5142 39.4667 56.5755 38.912L54.4635 42.368C54.1648 42.7947 53.7808 42.8373 53.3115 42.496C53.0982 42.3253 52.5862 42.0053 51.7755 41.536C51.0075 41.0667 49.9622 40.4267 48.6395 39.616C48.1702 39.36 48.1062 38.9973 48.4475 38.528L51.5195 33.92C51.7755 33.5787 52.1382 33.472 52.6075 33.6C53.8875 34.0267 55.0822 34.6453 56.1915 35.456L58.1755 32.512ZM75.5285 25.6C76.3818 24.1067 76.9152 24.256 77.1285 26.048C78.0245 33.984 78.5365 41.2373 78.6645 47.808C78.7925 54.464 78.9205 58.496 79.0485 59.904C79.2192 63.232 81.2458 65.024 85.1285 65.28C86.4512 65.3653 87.1978 66.0053 87.3685 67.2C87.4112 67.4133 87.4112 67.7333 87.3685 68.16C87.3685 68.544 87.3258 69.0133 87.2405 69.568C87.0698 70.592 86.8352 71.424 86.5365 72.064C86.2805 72.6613 85.8112 72.96 85.1285 72.96C79.1125 72.96 75.9125 70.0587 75.5285 64.256C75.4432 62.9333 75.3578 61.1413 75.2725 58.88C75.1872 56.6187 75.1018 53.9093 75.0165 50.752C74.9312 47.8507 74.6965 44.864 74.3125 41.792C73.9712 38.72 73.4805 35.5413 72.8405 32.256C72.6272 31.1467 72.7338 30.272 73.1605 29.632L75.5285 25.6ZM86.5055 59.136C87.6575 56.2773 89.0442 54.6347 90.6655 54.208C92.3295 53.7813 94.9108 54.2293 98.4095 55.552C100.159 56.2347 102.079 56.832 104.169 57.344C106.26 57.8133 108.479 58.2187 110.825 58.56C113.215 58.9013 115.498 59.1147 117.674 59.2C119.85 59.2427 121.919 59.1787 123.882 59.008C125.929 58.8373 126.612 59.4133 125.93 60.736L123.369 65.6C123.113 66.0267 122.537 66.2187 121.641 66.176C114.004 65.792 107.732 66.3467 102.825 67.84C102.612 67.8827 101.929 68.1173 100.777 68.544C99.6255 68.9707 97.9828 69.6107 95.8495 70.464C91.6255 72.128 88.6815 72.96 87.0175 72.96C85.9935 72.96 85.2468 71.872 84.7775 69.696C84.3508 67.5627 84.7562 66.176 85.9935 65.536C86.2922 65.3653 87.5295 65.216 89.7055 65.088C91.9242 64.96 96.1268 64.1067 102.313 62.528C98.4735 61.2053 93.6735 60.672 87.9135 60.928C86.5055 60.9707 86.0362 60.3733 86.5055 59.136ZM100.585 76.096C100.841 75.7547 101.204 75.648 101.673 75.776C102.527 76.0747 103.337 76.4587 104.105 76.928C104.916 77.3973 105.663 77.9307 106.345 78.528C106.687 78.8693 106.751 79.2533 106.537 79.68L103.465 84.544C103.167 84.9707 102.783 85.0133 102.313 84.672C101.887 84.3307 100.351 83.3707 97.7055 81.792C97.2362 81.4933 97.1508 81.1307 97.4495 80.704L100.585 76.096ZM120.661 48.96C120.661 50.0267 120.299 50.6027 119.573 50.688C118.891 50.7307 118.443 50.24 118.229 49.216C117.845 46.7413 117.312 45.1413 116.629 44.416C115.904 43.6053 115.179 43.6693 114.453 44.608C109.205 51.648 104.619 55.9573 100.693 57.536C98.6882 58.3893 96.9815 58.56 95.5735 58.048C93.9095 57.4933 92.9495 56.4267 92.6935 54.848L92.5655 54.08L93.3335 53.824C95.4668 53.056 97.5575 52.1813 99.6055 51.2C101.696 50.2187 103.723 49.1307 105.685 47.936C108.672 46.0587 110.784 43.584 112.021 40.512C113.301 37.44 114.709 35.8613 116.245 35.776C117.995 35.6907 119.189 37.3333 119.829 40.704C120.085 42.0267 120.277 43.3707 120.405 44.736C120.533 46.1013 120.619 47.5093 120.661 48.96ZM113.237 24.256C113.493 23.9147 113.856 23.808 114.325 23.936C115.179 24.2347 115.989 24.6187 116.757 25.088C117.568 25.5573 118.315 26.0907 118.997 26.688C119.339 27.0293 119.403 27.4133 119.189 27.84L116.117 32.704C115.819 33.1307 115.435 33.1733 114.965 32.832C114.539 32.4907 113.003 31.5307 110.357 29.952C109.888 29.6533 109.803 29.2907 110.101 28.864L113.237 24.256Z" fill="white"/>
<path d="M15.1626 55.75C12.9751 55.75 11.1001 54.375 11.1001 51.2625C11.1001 46.45 15.2501 42.8 17.1251 41.7625C18.8409 42.7333 20.6296 43.5692 22.4751 44.2625C19.7208 42.4635 17.4639 39.9997 15.9129 37.0985C14.3618 34.1973 13.5664 30.9521 13.6001 27.6625C13.6001 21.1625 17.0251 18.25 20.1126 18.25C22.6126 18.25 28.4751 20.9875 28.4751 31.4625C28.4751 42.7125 22.5876 55.75 15.1626 55.75Z" fill="white"/>
<path d="M24.625 52.175C24.625 53.8125 25.2 54.45 26.075 54.45C28.2625 54.45 31.7375 49.35 31.6125 44C34.925 40.5 38.9 35.025 38.9 30.6375C38.9 29.575 38.5875 28.6875 37.3375 28.6875C35.4125 28.6875 32.6625 32 30.925 35.2875C29.1875 38.575 27.6625 42.5875 25.575 47.9375C25.0334 49.29 24.7127 50.7207 24.625 52.175Z" fill="white"/>
</svg>
